<mxfile host="app.diagrams.net" agent="Mozilla/5.0 (Macintosh; Intel Mac OS X 10_15_7) AppleWebKit/537.36 (KHTML, like Gecko) Chrome/140.0.0.0 Safari/537.36 Edg/140.0.0.0" version="28.2.3">
  <diagram name="第 1 页" id="jtd3-GFuVT2AE-UvLqNh">
    <mxGraphModel dx="994" dy="565" grid="1" gridSize="10" guides="1" tooltips="1" connect="1" arrows="1" fold="1" page="1" pageScale="1" pageWidth="1169" pageHeight="827" math="0" shadow="0">
      <root>
        <mxCell id="0" />
        <mxCell id="1" parent="0" />
        <mxCell id="X96jRQxLEZhacBh6kYGu-1" value="" style="rounded=0;whiteSpace=wrap;html=1;" vertex="1" parent="1">
          <mxGeometry x="180" y="70" width="550" height="490" as="geometry" />
        </mxCell>
        <mxCell id="_pnz-nJoAxj3tHFFjfV8-2" value="" style="rounded=0;whiteSpace=wrap;html=1;fillColor=#e1d5e7;strokeColor=#9673a6;" parent="1" vertex="1">
          <mxGeometry x="220" y="130" width="200" height="405" as="geometry" />
        </mxCell>
        <mxCell id="_pnz-nJoAxj3tHFFjfV8-3" value="&lt;font style=&quot;font-size: 14px;&quot;&gt;一个main线程&lt;/font&gt;" style="text;html=1;strokeColor=none;fillColor=none;align=center;verticalAlign=middle;whiteSpace=wrap;rounded=0;" parent="1" vertex="1">
          <mxGeometry x="270" y="135" width="100" height="30" as="geometry" />
        </mxCell>
        <mxCell id="_pnz-nJoAxj3tHFFjfV8-4" value="" style="rounded=0;whiteSpace=wrap;html=1;fillColor=#f5f5f5;fontColor=#333333;strokeColor=#666666;" parent="1" vertex="1">
          <mxGeometry x="240" y="175" width="160" height="340" as="geometry" />
        </mxCell>
        <mxCell id="_pnz-nJoAxj3tHFFjfV8-5" value="&lt;font style=&quot;font-size: 16px;&quot;&gt;&lt;b&gt;栈&lt;/b&gt;&lt;/font&gt;（这一线程专属）" style="text;html=1;strokeColor=none;fillColor=none;align=center;verticalAlign=middle;whiteSpace=wrap;rounded=0;" parent="1" vertex="1">
          <mxGeometry x="270" y="175" width="120" height="30" as="geometry" />
        </mxCell>
        <mxCell id="_pnz-nJoAxj3tHFFjfV8-6" value="" style="rounded=0;whiteSpace=wrap;html=1;fillColor=#dae8fc;strokeColor=#6c8ebf;" parent="1" vertex="1">
          <mxGeometry x="250" y="208" width="140" height="197" as="geometry" />
        </mxCell>
        <mxCell id="_pnz-nJoAxj3tHFFjfV8-7" value="局部变量表" style="rounded=0;whiteSpace=wrap;html=1;fillColor=#ffe6cc;strokeColor=#d79b00;" parent="1" vertex="1">
          <mxGeometry x="260" y="246" width="120" height="29" as="geometry" />
        </mxCell>
        <mxCell id="_pnz-nJoAxj3tHFFjfV8-8" value="方法出口" style="rounded=0;whiteSpace=wrap;html=1;" parent="1" vertex="1">
          <mxGeometry x="260" y="365" width="120" height="29" as="geometry" />
        </mxCell>
        <mxCell id="_pnz-nJoAxj3tHFFjfV8-9" value="动态链接" style="rounded=0;whiteSpace=wrap;html=1;" parent="1" vertex="1">
          <mxGeometry x="260" y="325" width="120" height="29" as="geometry" />
        </mxCell>
        <mxCell id="_pnz-nJoAxj3tHFFjfV8-10" value="操作数栈" style="rounded=0;whiteSpace=wrap;html=1;" parent="1" vertex="1">
          <mxGeometry x="260" y="285" width="120" height="29" as="geometry" />
        </mxCell>
        <mxCell id="_pnz-nJoAxj3tHFFjfV8-11" value="某一方法的栈帧" style="text;html=1;strokeColor=none;fillColor=none;align=center;verticalAlign=middle;whiteSpace=wrap;rounded=0;" parent="1" vertex="1">
          <mxGeometry x="275" y="208" width="90" height="30" as="geometry" />
        </mxCell>
        <mxCell id="_pnz-nJoAxj3tHFFjfV8-12" value="某一方法的栈帧" style="rounded=0;whiteSpace=wrap;html=1;fillColor=#dae8fc;strokeColor=#6c8ebf;" parent="1" vertex="1">
          <mxGeometry x="250" y="435" width="140" height="60" as="geometry" />
        </mxCell>
        <mxCell id="X96jRQxLEZhacBh6kYGu-2" value="" style="rounded=0;whiteSpace=wrap;html=1;fillColor=#e1d5e7;strokeColor=#9673a6;" vertex="1" parent="1">
          <mxGeometry x="450" y="130" width="200" height="405" as="geometry" />
        </mxCell>
        <mxCell id="X96jRQxLEZhacBh6kYGu-3" value="&lt;font style=&quot;font-size: 14px;&quot;&gt;XXX线程&lt;/font&gt;" style="text;html=1;strokeColor=none;fillColor=none;align=center;verticalAlign=middle;whiteSpace=wrap;rounded=0;" vertex="1" parent="1">
          <mxGeometry x="500" y="135" width="100" height="30" as="geometry" />
        </mxCell>
        <mxCell id="X96jRQxLEZhacBh6kYGu-4" value="&lt;font style=&quot;font-size: 18px;&quot;&gt;&lt;b&gt;JVM栈内存空间&lt;/b&gt;&lt;/font&gt;" style="text;html=1;align=center;verticalAlign=middle;whiteSpace=wrap;rounded=0;" vertex="1" parent="1">
          <mxGeometry x="330" y="80" width="210" height="30" as="geometry" />
        </mxCell>
      </root>
    </mxGraphModel>
  </diagram>
</mxfile>
